<svg width="13" height="22" viewBox="0 0 13 22" fill="none" xmlns="http://www.w3.org/2000/svg">
<path fill-rule="evenodd" clip-rule="evenodd" d="M0.978303 21.6786C1.1956 21.8849 1.48383 22 1.7835 22C2.08317 22 2.3714 21.8849 2.5887 21.6786L12.008 12.5882C12.2188 12.3879 12.3867 12.1467 12.5014 11.8794C12.6161 11.6121 12.6753 11.3243 12.6753 11.0334C12.6753 10.7425 12.6161 10.4547 12.5014 10.1874C12.3867 9.92009 12.2188 9.67893 12.008 9.47855L2.5205 0.321091C2.0805 -0.102407 1.3677 -0.107908 0.921103 0.31009C0.81298 0.409673 0.726482 0.530423 0.666979 0.664836C0.607476 0.799249 0.576239 0.944457 0.575208 1.09145C0.574176 1.23844 0.603371 1.38407 0.660982 1.51931C0.718592 1.65454 0.803388 1.77649 0.910104 1.87759L9.59236 10.2562C9.69787 10.3564 9.78189 10.4771 9.8393 10.6108C9.89672 10.7445 9.92632 10.8884 9.92632 11.0339C9.92632 11.1794 9.89672 11.3234 9.8393 11.4571C9.78189 11.5908 9.69787 11.7114 9.59236 11.8116L0.979403 20.1243C0.873924 20.2244 0.789927 20.3449 0.732526 20.4785C0.675126 20.6121 0.645525 20.756 0.645525 20.9014C0.645525 21.0469 0.675126 21.1908 0.732526 21.3244C0.789927 21.458 0.872824 21.5785 0.978303 21.6786Z" fill="white"/>
</svg>
