<svg width="38" height="21" viewBox="0 0 38 21" fill="none" xmlns="http://www.w3.org/2000/svg">
<path fill-rule="evenodd" clip-rule="evenodd" d="M37.1343 19.9973C37.4813 19.6318 37.6748 19.1471 37.6748 18.6431C37.6748 18.1391 37.4813 17.6543 37.1343 17.2889L21.8459 1.44742C21.5089 1.09281 21.1033 0.810456 20.6538 0.617513C20.2042 0.42457 19.7202 0.325073 19.231 0.325073C18.7418 0.325073 18.2577 0.42457 17.8081 0.617513C17.3586 0.810456 16.953 1.09281 16.616 1.44742L1.21482 17.4036C0.502574 18.1436 0.493323 19.3424 1.19632 20.0935C1.3638 20.2753 1.56688 20.4208 1.79294 20.5209C2.019 20.6209 2.26321 20.6735 2.51042 20.6752C2.75763 20.6769 3.00257 20.6278 3.23001 20.531C3.45745 20.4341 3.66255 20.2915 3.83256 20.112L17.9239 5.51C18.0925 5.33255 18.2953 5.19125 18.5202 5.09469C18.745 4.99814 18.9872 4.94834 19.2319 4.94834C19.4766 4.94834 19.7188 4.99814 19.9436 5.09469C20.1685 5.19125 20.3713 5.33255 20.5398 5.51L34.5202 19.9954C34.6886 20.1728 34.8913 20.3141 35.116 20.4106C35.3407 20.5072 35.5827 20.557 35.8272 20.557C36.0718 20.557 36.3138 20.5072 36.5385 20.4106C36.7632 20.3141 36.9659 20.1747 37.1343 19.9973Z" fill="black"/>
</svg>
