<svg width="23" height="22" viewBox="0 0 23 22" fill="none" xmlns="http://www.w3.org/2000/svg">
<path d="M17.9541 21.2095C17.1596 21.7754 12.0616 18.188 11.0852 18.1802C10.1089 18.1723 4.95349 21.6772 4.16825 21.0985C3.383 20.5199 5.22908 14.5767 4.93488 13.6483C4.64069 12.72 -0.295257 8.91387 0.013934 7.99036C0.323193 7.06685 6.56209 6.98108 7.35661 6.41516C8.15112 5.84931 10.256 -0.00780874 11.2324 7.81651e-06C12.2087 0.00789234 14.2184 5.89811 15.0037 6.47674C15.7889 7.0553 22.0257 7.24154 22.32 8.16987C22.6142 9.09821 17.6174 12.8244 17.3081 13.7479C16.9989 14.6714 18.7486 20.6435 17.9541 21.2095Z" fill="url(#paint0_linear_3_76)"/>
<defs>
<linearGradient id="paint0_linear_3_76" x1="2.85855e-05" y1="10.635" x2="22.3325" y2="10.635" gradientUnits="userSpaceOnUse">
<stop stop-color="#FCD635"/>
<stop offset="1" stop-color="#F7A928"/>
</linearGradient>
</defs>
</svg>
