<svg width="38" height="21" viewBox="0 0 38 21" fill="none" xmlns="http://www.w3.org/2000/svg">
<path fill-rule="evenodd" clip-rule="evenodd" d="M1.21536 1.00308C0.868303 1.36854 0.674805 1.85329 0.674805 2.35728C0.674805 2.86126 0.868303 3.34602 1.21536 3.71147L16.5037 19.5529C16.8407 19.9076 17.2463 20.1899 17.6958 20.3829C18.1454 20.5758 18.6295 20.6753 19.1186 20.6753C19.6078 20.6753 20.0919 20.5758 20.5415 20.3829C20.991 20.1899 21.3966 19.9076 21.7336 19.5529L37.1348 3.59677C37.847 2.85677 37.8563 1.65798 37.1533 0.906885C36.9858 0.725041 36.7827 0.579567 36.5567 0.479494C36.3306 0.379421 36.0864 0.326886 35.8392 0.325151C35.592 0.323417 35.347 0.372518 35.1196 0.469408C34.8922 0.566298 34.6871 0.70891 34.517 0.888386L20.4257 15.4904C20.2572 15.6678 20.0543 15.8091 19.8294 15.9057C19.6046 16.0022 19.3624 16.052 19.1177 16.052C18.873 16.052 18.6309 16.0022 18.406 15.9057C18.1811 15.8091 17.9783 15.6678 17.8098 15.4904L3.82939 1.00493C3.66105 0.827539 3.45835 0.68627 3.23364 0.589733C3.00894 0.493196 2.76694 0.443413 2.52238 0.443413C2.27781 0.443413 2.03581 0.493196 1.81111 0.589733C1.58641 0.68627 1.38371 0.825689 1.21536 1.00308Z" fill="black"/>
</svg>
